<mxfile host="65bd71144e">
    <diagram id="DGsSEoGPpnTCbC8ZnRY2" name="Page-1">
        <mxGraphModel dx="832" dy="571" grid="0" gridSize="10" guides="1" tooltips="1" connect="1" arrows="1" fold="1" page="1" pageScale="1" pageWidth="827" pageHeight="1169" background="#ffffff" math="0" shadow="0">
            <root>
                <mxCell id="0"/>
                <mxCell id="1" parent="0"/>
                <mxCell id="22" value="" style="html=1;shadow=0;dashed=0;fillColor=#E3F3FD;strokeColor=none;fontSize=16;fontColor=#161819;align=left;spacing=15;" vertex="1" parent="1">
                    <mxGeometry x="9" y="43" width="800" height="60" as="geometry"/>
                </mxCell>
                <mxCell id="23" value="Accueil" style="fillColor=none;strokeColor=none;fontSize=14;fontColor=#161819;align=center;" vertex="1" parent="22">
                    <mxGeometry width="70" height="40" relative="1" as="geometry">
                        <mxPoint x="16" y="10" as="offset"/>
                    </mxGeometry>
                </mxCell>
                <mxCell id="45" value="Présentation" style="fillColor=none;strokeColor=none;fontSize=14;fontColor=#161819;align=center;" vertex="1" parent="22">
                    <mxGeometry x="157" y="10" width="86" height="40" as="geometry"/>
                </mxCell>
                <mxCell id="48" value="Contact" style="fillColor=none;strokeColor=none;fontSize=14;fontColor=#161819;align=center;" vertex="1" parent="22">
                    <mxGeometry x="473" y="10" width="86" height="40" as="geometry"/>
                </mxCell>
                <mxCell id="51" value="Blog" style="fillColor=none;strokeColor=none;fontSize=14;fontColor=#161819;align=center;" vertex="1" parent="22">
                    <mxGeometry x="252" y="10" width="86" height="40" as="geometry"/>
                </mxCell>
                <mxCell id="62" value="Témoignages" style="fillColor=none;strokeColor=none;fontSize=14;fontColor=#161819;align=center;" vertex="1" parent="22">
                    <mxGeometry x="357" y="10" width="86" height="40" as="geometry"/>
                </mxCell>
            </root>
        </mxGraphModel>
    </diagram>
</mxfile>